# xmcd
#
# Track frame offsets:
#  150
#  16200
#  38850
#  61650
#  85162
#  108262
#  130125
#  145537
#  166725
#  190912
#  211425
#
# Disc length: 3197 seconds
#
# Revision: 0
# Processed by: cddbd v1.5.1PL2 Copyright (c) Steve Scherf et al.
# Submitted via: Collectorz.com_Music_Collector 6.9
#
DISCID=860c7b0b
DTITLE=Robillard, Duke/Jay Geils/Gerry Beaudoin - New Guitar Summit
DYEAR=2004
DGENRE=Blues
TTITLE0=Bennies Bugle
TTITLE1=Never Say Never Again Again
TTITLE2=Swing With Dr. Jake
TTITLE3=Ain't Nobody's Business
TTITLE4=Lady B. Good
TTITLE5=Azzure Mineur
TTITLE6=Just Among Friends
TTITLE7=Perdido
TTITLE8=Backdoor Blues
TTITLE9=Seven Come Eleven
TTITLE10=Glide On
EXTD=
EXTT0=
EXTT1=
EXTT2=
EXTT3=
EXTT4=
EXTT5=
EXTT6=
EXTT7=
EXTT8=
EXTT9=
EXTT10=
PLAYORDER=
